<svg width="26" height="33" viewBox="0 0 26 33" fill="none" xmlns="http://www.w3.org/2000/svg">
<path d="M22.4382 17.9301C22.4599 17.5026 22.4577 17.0744 22.4316 16.6472C22.3794 14.8066 21.9205 13.0016 21.0887 11.3665C20.1138 9.75092 18.9454 8.26518 17.6102 6.94341C16.0849 5.29901 14.9408 2.47879 16.9158 0.704706C16.8985 0.720232 15.7032 0.261704 15.6117 0.237602C14.6467 -0.0433409 13.6283 -0.0757258 12.6481 0.143558C9.42113 0.97574 8.59352 4.31275 9.27882 7.14998C7.77375 6.65123 6.12173 7.00966 4.94718 8.08996C4.82723 8.21165 4.7825 8.39042 4.83043 8.55559C4.87835 8.7209 5.01137 8.84614 5.17707 8.88192C5.55522 8.9807 5.92829 9.09869 6.29483 9.23562C7.28175 9.56476 7.93451 10.5204 7.89443 11.5769C7.73149 12.1598 7.40228 12.6803 6.94861 13.0726C6.48957 13.5768 6.10953 14.1499 5.82185 14.772C5.35496 15.7325 5.11114 16.7896 5.1094 17.8615C5.1094 22.1685 8.99622 25.66 13.7907 25.66C16.1708 25.6792 18.4672 24.7661 20.2048 23.1096C21.5852 21.7465 22.387 19.8873 22.4382 17.9301Z" fill="#CC4B4C"/>
<path d="M2.56604 25.6603H23.0942C24.5114 25.6603 25.6603 27.0964 25.6603 28.8678C25.6603 30.6392 24.5114 32.0754 23.0942 32.0754H2.56604C1.14892 32.0754 0 30.6392 0 28.8678C0 27.0964 1.14892 25.6603 2.56604 25.6603Z" fill="#CB8252"/>
<path d="M16.7372 25.1459C16.7372 25.1491 16.7359 25.1521 16.7334 25.1545C16.731 25.1567 16.7275 25.1579 16.724 25.1579C15.664 25.4877 14.551 25.6572 13.4299 25.6597C13.0628 25.6639 12.6957 25.644 12.3318 25.5999V25.576C10.2548 24.7279 8.03231 23.2108 8.01904 21.192C8.03734 20.1572 8.56008 19.1825 9.44778 18.5281C10.1225 18.0025 10.9427 17.6441 11.6042 17.1185C12.2536 16.6582 12.7221 16.0217 12.9404 15.3027C13.0792 14.4848 13.1192 13.6557 13.0594 12.8301C13.0594 12.8898 13.377 13.0211 13.4299 13.0571C14.552 13.7367 15.3576 14.7658 15.6921 15.9479C15.7456 16.1687 15.7854 16.392 15.8111 16.6169V16.6289C15.7812 17.7663 15.3347 18.8629 14.5411 19.7466C14.5145 19.7944 15.1364 20.0214 15.1894 20.0333C15.4305 20.0952 15.6797 20.1274 15.9303 20.1289C16.4249 20.1312 16.9118 20.0203 17.3458 19.8064C17.5635 19.6854 17.7489 19.5221 17.8882 19.3286C18.0135 19.1305 18.107 18.9173 18.166 18.6955C18.166 18.6955 18.4437 18.9702 18.4703 19.006C18.5844 19.1626 18.6861 19.3262 18.7746 19.4958C18.9293 19.7996 19.0532 20.1155 19.145 20.4396C19.5747 22.3155 18.5979 24.225 16.7372 25.1459Z" fill="#F29C1F"/>
</svg>
