<?xml version="1.0" standalone="no"?>
<!DOCTYPE svg PUBLIC "-//W3C//DTD SVG 20010904//EN"
 "http://www.w3.org/TR/2001/REC-SVG-20010904/DTD/svg10.dtd">
<svg version="1.0" xmlns="http://www.w3.org/2000/svg"
 width="342.000000pt" height="61.000000pt" viewBox="0 0 342.000000 61.000000"
 preserveAspectRatio="xMidYMid meet">

<g transform="translate(0.000000,61.000000) scale(0.100000,-0.100000)"
fill="#000000" stroke="none">
<path d="M2037 508 l-87 -80 0 -84 0 -84 -30 0 c-30 0 -30 -1 -30 -55 0 -54 0
-55 30 -55 l30 0 0 -65 0 -65 55 0 55 0 0 65 0 65 65 0 65 0 0 -65 0 -65 55 0
55 0 0 204 0 203 -88 81 -88 80 -87 -80z m125 -95 c25 -24 28 -34 28 -90 l0
-63 -65 0 -65 0 0 62 c0 54 4 66 27 90 33 35 40 35 75 1z"/>
<path d="M2447 323 c-52 -148 -98 -276 -102 -285 -5 -13 2 -19 33 -29 22 -6
46 -9 54 -7 7 3 40 80 72 172 33 91 62 166 65 166 3 0 27 -37 52 -81 l46 -81
43 78 c48 89 48 89 55 82 3 -3 32 -78 64 -167 32 -89 61 -165 64 -168 7 -7 67
4 85 16 11 7 -7 67 -86 287 -55 154 -104 279 -109 278 -4 0 -30 -40 -58 -87
-27 -47 -53 -89 -56 -92 -4 -3 -31 37 -60 90 -30 52 -57 95 -60 95 -4 0 -49
-120 -102 -267z"/>
<path d="M10 515 c0 -48 2 -55 20 -55 17 0 20 -7 20 -45 0 -38 -3 -45 -20 -45
-18 0 -20 -7 -20 -55 0 -48 2 -55 20 -55 19 0 20 -7 20 -120 l0 -120 55 0 55
0 0 120 0 120 45 0 45 0 0 55 0 55 -45 0 -45 0 0 45 0 45 80 0 80 0 0 55 0 55
-155 0 -155 0 0 -55z"/>
<path d="M360 295 l0 -275 55 0 55 0 0 275 0 275 -55 0 -55 0 0 -275z"/>
<path d="M510 295 l0 -275 55 0 55 0 0 65 0 65 34 0 c30 0 40 -8 86 -65 l52
-65 70 0 69 0 -63 76 c-99 118 -97 99 -23 188 l64 77 -87 105 -87 104 -112 0
-113 0 0 -275z m220 115 l42 -50 -42 -50 c-35 -42 -47 -50 -76 -50 l-34 0 0
100 0 100 34 0 c29 0 41 -8 76 -50z"/>
<path d="M1000 515 c0 -48 2 -55 20 -55 17 0 20 -7 20 -50 0 -43 -3 -50 -20
-50 -18 0 -20 -7 -20 -55 0 -48 2 -55 20 -55 18 0 20 -7 20 -60 0 -53 -2 -60
-20 -60 -18 0 -20 -7 -20 -55 l0 -55 155 0 155 0 0 55 0 55 -80 0 -80 0 0 60
0 60 80 0 80 0 0 55 0 55 -80 0 -80 0 0 50 0 50 80 0 80 0 0 55 0 55 -155 0
-155 0 0 -55z"/>
<path d="M1596 435 c-53 -91 -76 -141 -72 -152 4 -10 39 -73 79 -140 l72 -123
88 0 87 0 0 55 0 55 -59 0 -59 0 -46 78 c-25 43 -46 82 -46 86 0 4 21 43 46
86 l46 80 59 0 59 0 0 55 0 55 -87 0 -88 0 -79 -135z"/>
<path d="M3030 295 l0 -275 55 0 55 0 0 65 0 65 58 0 57 1 83 99 c45 55 82
104 82 110 0 6 -37 55 -82 110 l-83 99 -112 1 -113 0 0 -275z m220 115 l42
-50 -43 -50 c-35 -42 -48 -50 -76 -50 l-33 0 0 100 0 100 34 0 c29 0 41 -8 76
-50z"/>
</g>
</svg>
