<svg width="131" height="25" viewBox="0 0 131 25" fill="none" xmlns="http://www.w3.org/2000/svg">
<g clip-path="url(#clip0)">
<path d="M88.9226 6.12353L86.2757 8.57787V11.1549V13.732H85.3629C84.4502 13.732 84.4502 13.7626 84.4502 15.4193C84.4502 17.076 84.4502 17.1067 85.3629 17.1067H86.2757V19.1008V21.095H87.949H89.6224V19.1008V17.1067H91.5999H93.5775V19.1008V21.095H95.2509H96.9242V14.8364V8.60854L94.2469 6.12353L91.5695 3.6692L88.9226 6.12353ZM92.7256 9.03805C93.4863 9.77435 93.5775 10.0811 93.5775 11.7992V13.732H91.5999H89.6224V11.8299C89.6224 10.1732 89.7441 9.80503 90.4438 9.06873C91.4478 7.99496 91.6608 7.99496 92.7256 9.03805Z" fill="black"/>
<path d="M101.397 11.7991C99.8149 16.3397 98.4154 20.2666 98.2937 20.5427C98.1416 20.9415 98.3545 21.1256 99.2977 21.4324C99.967 21.6165 100.697 21.7085 100.941 21.6471C101.154 21.5551 102.158 19.1928 103.131 16.3703C104.135 13.5785 105.017 11.2776 105.109 11.2776C105.2 11.2776 105.93 12.4127 106.691 13.7626L108.09 16.2476L109.399 13.8546C110.859 11.1242 110.859 11.1242 111.072 11.3389C111.163 11.431 112.046 13.7319 113.019 16.4624C113.993 19.1928 114.875 21.5244 114.966 21.6165C115.179 21.8312 117.005 21.4938 117.552 21.1256C117.887 20.9108 117.339 19.0701 114.936 12.3207C113.263 7.59608 111.772 3.76118 111.62 3.79186C111.498 3.79186 110.707 5.01903 109.855 6.46095C109.034 7.90287 108.242 9.1914 108.151 9.28344C108.03 9.37548 107.208 8.14831 106.326 6.52231C105.413 4.92699 104.592 3.60779 104.5 3.60779C104.379 3.60779 103.009 7.28929 101.397 11.7991Z" fill="black"/>
<path d="M27.2524 5.90878C27.2524 7.38138 27.3133 7.59613 27.8609 7.59613C28.3781 7.59613 28.4694 7.81089 28.4694 8.9767C28.4694 10.1425 28.3781 10.3573 27.8609 10.3573C27.3133 10.3573 27.2524 10.572 27.2524 12.0446C27.2524 13.5172 27.3133 13.732 27.8609 13.732C28.439 13.732 28.4694 13.9467 28.4694 17.4135V21.095H30.1428H31.8161V17.4135V13.732H33.1852H34.5543V12.0446V10.3573H33.1852H31.8161V8.9767V7.59613H34.2501H36.684V5.90878V4.22143H31.9682H27.2524V5.90878Z" fill="black"/>
<path d="M37.9009 12.6582V21.095H39.5742H41.2476V12.6582V4.22143H39.5742H37.9009V12.6582Z" fill="black"/>
<path d="M42.4648 12.6582V21.095H44.1382H45.8115V19.1008V17.1067H46.846C47.7587 17.1067 48.0629 17.3521 49.4625 19.1008L51.0445 21.095H53.1742H55.2735L53.3568 18.7634C50.3448 15.1432 50.4056 15.7261 52.657 12.9957L54.6042 10.6334L51.9573 7.41206L49.3103 4.22143H45.9028H42.4648V12.6582ZM49.1582 9.13009L50.436 10.6641L49.1582 12.198C48.0934 13.4865 47.7283 13.732 46.846 13.732H45.8115V10.6641V7.59613H46.846C47.7283 7.59613 48.0934 7.84157 49.1582 9.13009Z" fill="black"/>
<path d="M57.3726 5.90878C57.3726 7.38138 57.4334 7.59613 57.981 7.59613C58.4983 7.59613 58.5895 7.81089 58.5895 9.13009C58.5895 10.4493 58.4983 10.6641 57.981 10.6641C57.4334 10.6641 57.3726 10.8788 57.3726 12.3514C57.3726 13.824 57.4334 14.0388 57.981 14.0388C58.5287 14.0388 58.5895 14.2535 58.5895 15.8795C58.5895 17.5055 58.5287 17.7203 57.981 17.7203C57.4334 17.7203 57.3726 17.935 57.3726 19.4076V21.095H62.0883H66.8041V19.4076V17.7203H64.3702H61.9362V15.8795V14.0388H64.3702H66.8041V12.3514V10.6641H64.3702H61.9362V9.13009V7.59613H64.3702H66.8041V5.90878V4.22143H62.0883H57.3726V5.90878Z" fill="black"/>
<path d="M75.5058 8.36311C73.8933 11.1549 73.1935 12.6889 73.3152 13.0263C73.4369 13.3331 74.5018 15.2659 75.7188 17.3214L77.9093 21.095H80.5867H83.2336V19.4076V17.7203H81.4386H79.6435L78.244 15.3273C77.4834 14.0081 76.8445 12.8116 76.8445 12.6889C76.8445 12.5662 77.4834 11.3697 78.244 10.0505L79.6435 7.59613H81.4386H83.2336V5.90878V4.22143H80.5867H77.9093L75.5058 8.36311Z" fill="black"/>
<path d="M119.134 12.6582V21.095H120.808H122.481V19.1008V17.1067H124.246L125.98 17.076L128.505 14.0388C129.874 12.3514 131 10.8481 131 10.6641C131 10.48 129.874 8.9767 128.505 7.28934L125.98 4.2521L122.572 4.22143H119.134V12.6582ZM125.828 9.13009L127.105 10.6641L125.797 12.198C124.732 13.4865 124.337 13.732 123.485 13.732H122.481V10.6641V7.59613H123.515C124.398 7.59613 124.763 7.84157 125.828 9.13009Z" fill="black"/>
</g>
<path d="M16.7964 13.4219C16.8126 13.1019 16.811 12.7814 16.7914 12.4616C16.7524 11.0838 16.4089 9.73262 15.7862 8.50864C15.0565 7.29927 14.1818 6.18708 13.1823 5.19765C12.0405 3.96669 11.1841 1.85555 12.6625 0.527523C12.6496 0.539146 11.7548 0.195904 11.6863 0.177862C10.9639 -0.0324438 10.2016 -0.0566862 9.46778 0.107463C7.05219 0.730412 6.43266 3.22841 6.94565 5.35228C5.819 4.97893 4.58234 5.24723 3.70311 6.05592C3.61332 6.14701 3.57984 6.28083 3.61571 6.40447C3.65159 6.52822 3.75116 6.62197 3.8752 6.64876C4.15827 6.7227 4.43754 6.81103 4.71192 6.91352C5.4507 7.15991 5.93934 7.87529 5.90934 8.66615C5.78737 9.10248 5.54093 9.4921 5.20133 9.78575C4.8577 10.1632 4.57321 10.5922 4.35786 11.0579C4.00837 11.7769 3.82585 12.5682 3.82454 13.3706C3.82454 16.5947 6.73411 19.2084 10.3231 19.2084C12.1048 19.2227 13.8238 18.5392 15.1245 17.2992C16.1579 16.2788 16.7581 14.8871 16.7964 13.4219Z" fill="#CC4B4C"/>
<path d="M1.92087 19.2087H17.2877C18.3485 19.2087 19.2086 20.2838 19.2086 21.6098C19.2086 22.9358 18.3485 24.0109 17.2877 24.0109H1.92087C0.860053 24.0109 0 22.9358 0 21.6098C0 20.2838 0.860053 19.2087 1.92087 19.2087Z" fill="#CB8252"/>
<path d="M12.5291 18.8236C12.5291 18.8259 12.5281 18.8282 12.5263 18.8299C12.5244 18.8316 12.5218 18.8325 12.5192 18.8325C11.7257 19.0794 10.8926 19.2063 10.0533 19.2081C9.77853 19.2113 9.50374 19.1964 9.23134 19.1634V19.1455C7.67659 18.5106 6.01286 17.375 6.00293 15.8637C6.01662 15.0892 6.40793 14.3595 7.07245 13.8696C7.57753 13.4762 8.19149 13.2079 8.68665 12.8145C9.17279 12.4699 9.52348 11.9934 9.68689 11.4552C9.79086 10.8429 9.82076 10.2223 9.77602 9.60425C9.77602 9.64897 10.0137 9.74727 10.0533 9.77417C10.8934 10.2829 11.4964 11.0532 11.7467 11.9382C11.7868 12.1035 11.8166 12.2706 11.8359 12.439V12.4479C11.8135 13.2994 11.4792 14.1202 10.8851 14.7818C10.8653 14.8175 11.3308 14.9874 11.3705 14.9964C11.5509 15.0427 11.7375 15.0668 11.9251 15.0679C12.2953 15.0697 12.6598 14.9866 12.9847 14.8265C13.1476 14.7359 13.2864 14.6137 13.3907 14.4688C13.4845 14.3206 13.5545 14.1609 13.5986 13.9949C13.5986 13.9949 13.8066 14.2006 13.8264 14.2274C13.9119 14.3446 13.988 14.4671 14.0542 14.594C14.17 14.8214 14.2628 15.0579 14.3315 15.3005C14.6532 16.7048 13.9219 18.1342 12.5291 18.8236Z" fill="#F29C1F"/>
<defs>
<clipPath id="clip0">
<rect x="26.9482" y="2.99426" width="104.052" height="18.7143" fill="white"/>
</clipPath>
</defs>
</svg>
